<svg version="1.1" id="Layer_1" xmlns="http://www.w3.org/2000/svg" xmlns:xlink="http://www.w3.org/1999/xlink" x="0px" y="0px"
	 width="100%" viewBox="0 0 352 103" enable-background="new 0 0 352 103" xml:space="preserve">
<path fill="#FAFAFA" opacity="1.000000" stroke="none" 
	d="
M275.000000,104.000000 
	C183.333344,104.000000 92.166687,104.000000 1.000025,104.000000 
	C1.000016,69.666679 1.000016,35.333363 1.000008,1.000034 
	C118.333305,1.000022 235.666611,1.000022 352.999939,1.000011 
	C352.999939,35.333302 352.999939,69.666603 352.999969,103.999954 
	C327.166656,104.000000 301.333344,104.000000 275.000000,104.000000 
M2.566018,72.499771 
	C2.566018,81.575783 2.566018,90.651794 2.566018,99.696777 
	C119.061523,99.696777 234.932770,99.696777 350.728638,99.696777 
	C350.728638,67.667839 350.728638,35.938934 350.728638,4.271870 
	C234.530151,4.271870 118.629463,4.271870 2.565990,4.271870 
	C2.565990,26.860340 2.565990,49.180054 2.566018,72.499771 
z"/>
<path fill="#030303" opacity="1.000000" stroke="none" 
	d="
M2.566004,71.999771 
	C2.565990,49.180054 2.565990,26.860340 2.565990,4.271870 
	C118.629463,4.271870 234.530151,4.271870 350.728638,4.271870 
	C350.728638,35.938934 350.728638,67.667839 350.728638,99.696777 
	C234.932770,99.696777 119.061523,99.696777 2.566018,99.696777 
	C2.566018,90.651794 2.566018,81.575783 2.566004,71.999771 
M345.365112,6.999880 
	C232.129623,6.999880 118.894127,6.999880 5.470412,6.999880 
	C5.470412,37.159405 5.470412,66.880974 5.470412,96.772804 
	C119.745979,96.772804 233.773178,96.772804 348.151764,96.772804 
	C348.151764,67.435776 348.165070,38.323849 348.076019,9.212224 
	C348.073761,8.474774 346.944550,7.740773 345.365112,6.999880 
z"/>
<path fill="#FDFDFD" opacity="1.000000" stroke="none" 
	d="
M345.853027,7.002522 
	C346.944550,7.740773 348.073761,8.474774 348.076019,9.212224 
	C348.165070,38.323849 348.151764,67.435776 348.151764,96.772804 
	C233.773178,96.772804 119.745979,96.772804 5.470412,96.772804 
	C5.470412,66.880974 5.470412,37.159405 5.470412,6.999880 
	C118.894127,6.999880 232.129623,6.999880 345.853027,7.002522 
M107.500000,91.001259 
	C130.423798,91.001259 153.347580,91.001259 176.387207,91.001259 
	C176.387207,64.764206 176.387207,39.040756 176.387207,13.338127 
	C121.423759,13.338127 66.743401,13.338127 12.290716,13.338127 
	C12.290716,39.405426 12.290716,65.127068 12.290716,91.001259 
	C43.910164,91.001259 75.205078,91.001259 107.500000,91.001259 
M253.929504,53.053253 
	C253.931747,51.726803 254.066986,50.384823 253.914169,49.076488 
	C253.072678,41.872150 246.787262,36.829651 239.194763,37.195263 
	C231.337616,37.573620 225.878723,42.853294 225.648163,50.297127 
	C225.406662,58.093826 230.195786,63.550198 238.009201,64.380386 
	C245.813599,65.209602 250.909805,61.817806 253.929504,53.053253 
M273.474030,63.417725 
	C280.988586,60.766537 284.228088,55.570969 282.973572,48.182114 
	C281.936584,42.074593 276.855408,38.118786 269.579102,37.902653 
	C265.818573,37.790951 262.051971,37.883015 258.357819,37.883015 
	C258.357819,46.902462 258.357819,55.425381 258.357819,63.688774 
	C263.377838,63.688774 268.025696,63.688774 273.474030,63.417725 
M332.027710,44.976261 
	C330.258545,37.709457 324.809631,36.819672 310.228912,38.468426 
	C310.228912,46.897060 310.228912,55.325691 310.228912,63.773003 
	C312.725037,63.773003 314.977081,63.773003 317.465424,63.773003 
	C317.614471,61.314758 317.750214,59.076218 317.967346,55.494972 
	C319.764893,57.154045 321.257507,57.864109 321.541412,58.904099 
	C323.159119,64.830925 327.339783,64.572784 332.474915,63.613735 
	C331.266418,61.362492 330.014801,59.415009 329.182251,57.302372 
	C328.818695,56.379940 329.147369,55.071381 329.450470,54.021561 
	C330.248138,51.258915 331.204163,48.541996 332.027710,44.976261 
M204.362610,46.993656 
	C206.864914,43.979656 209.737320,43.599262 213.218643,45.381767 
	C216.029938,46.821205 219.042847,47.866928 222.917252,49.484280 
	C220.710938,40.513634 214.731216,36.341137 207.471588,37.288200 
	C199.801834,38.288769 195.223831,43.938107 195.650925,51.875122 
	C196.045486,59.207508 200.920914,64.018730 208.446411,64.502144 
	C215.895142,64.980614 221.421509,60.773727 222.664551,52.933727 
	C219.803833,53.610748 216.640381,53.503468 214.760223,55.004059 
	C211.906769,57.281418 209.207291,58.317871 206.220230,56.478096 
	C202.928741,54.450821 202.621597,51.149338 204.362610,46.993656 
M304.062469,64.007500 
	C304.803467,62.214973 305.544495,60.422447 306.600769,57.867287 
	C302.951416,57.867287 300.647583,57.733162 298.365723,57.899899 
	C295.236847,58.128529 294.178680,57.048782 295.396729,53.711769 
	C298.283813,53.711769 301.052887,53.711769 303.969910,53.711769 
	C304.049591,52.395866 304.142944,51.425846 304.156250,50.454731 
	C304.166962,49.669823 304.081268,48.883595 304.041412,48.153545 
	C295.256683,47.258797 295.256683,47.258797 295.263733,43.808857 
	C298.495026,43.808857 301.738922,43.808857 305.239777,43.808857 
	C305.138550,41.576500 305.059540,39.834820 304.985199,38.195759 
	C298.874451,38.195759 293.159271,38.195759 287.451691,38.195759 
	C287.451691,46.943211 287.451691,55.335613 287.451691,64.017120 
	C292.874237,64.017120 298.007355,64.017120 304.062469,64.007500 
z"/>
<path fill="#020202" opacity="1.000000" stroke="none" 
	d="
M107.000000,91.001259 
	C75.205078,91.001259 43.910164,91.001259 12.290716,91.001259 
	C12.290716,65.127068 12.290716,39.405426 12.290716,13.338127 
	C66.743401,13.338127 121.423759,13.338127 176.387207,13.338127 
	C176.387207,39.040756 176.387207,64.764206 176.387207,91.001259 
	C153.347580,91.001259 130.423798,91.001259 107.000000,91.001259 
M61.858604,39.291092 
	C56.094902,38.614998 50.331196,37.938908 44.540623,37.259663 
	C44.540623,47.008259 44.540623,55.406712 44.540623,64.021255 
	C48.693218,64.021255 52.631893,64.603569 56.291206,63.842571 
	C59.386852,63.198788 63.375195,61.680370 64.714645,59.287445 
	C65.928566,57.118801 64.098900,53.246490 63.448959,49.087387 
	C65.395256,46.816940 66.126778,43.319195 61.858604,39.291092 
M99.413910,50.047142 
	C102.125404,51.222725 104.909500,52.259716 107.520271,53.627556 
	C109.009277,54.407681 110.261307,55.681992 111.462418,56.890446 
	C111.558731,56.987339 110.437347,58.930878 109.863693,58.940548 
	C107.980843,58.972305 105.021416,59.150356 104.398918,58.115414 
	C102.413849,54.815128 100.022667,55.470242 97.093246,55.994301 
	C97.503319,60.453667 99.785011,62.996552 103.702721,64.004669 
	C108.071495,65.128860 112.405014,65.075333 115.869400,61.706905 
	C119.110764,58.555332 118.596909,53.374031 114.698166,50.946548 
	C112.492401,49.573170 109.727386,49.130577 107.370819,47.954945 
	C105.884697,47.213562 104.687828,45.892365 103.361214,44.831253 
	C103.971481,44.112537 104.594032,42.777920 105.189735,42.789791 
	C107.027275,42.826412 108.925125,43.174347 110.667458,43.780830 
	C112.712517,44.492680 114.618980,45.602722 117.291893,46.876740 
	C116.952156,40.988083 114.539894,38.708405 110.551926,37.694172 
	C106.228767,36.594692 102.154083,36.928497 99.062607,40.365330 
	C96.541138,43.168480 96.632309,46.410679 99.413910,50.047142 
M86.406273,48.114090 
	C84.107666,48.114090 81.809059,48.114090 79.350784,48.114090 
	C79.350784,46.213772 79.350784,44.688438 79.350784,42.805901 
	C83.076195,42.805901 86.512917,42.805901 90.150032,42.805901 
	C90.150032,41.039955 90.150032,39.635796 90.150032,38.147499 
	C84.387390,38.147499 78.841660,38.147499 73.310791,38.147499 
	C73.310791,46.891331 73.310791,55.301811 73.310791,63.691910 
	C79.330833,63.691910 85.073021,63.691910 90.986969,63.691910 
	C90.845192,61.953720 90.730408,60.546547 90.591461,58.843086 
	C86.643456,58.843086 83.026978,58.843086 79.047493,58.843086 
	C79.137314,56.798725 79.211861,55.102200 79.301872,53.053665 
	C82.889610,53.053665 85.992592,53.053665 90.524956,53.053665 
	C89.095711,50.822769 88.229324,49.470432 86.406273,48.114090 
M135.494934,37.809357 
	C131.539917,37.809357 127.584900,37.809357 123.473145,37.809357 
	C123.473145,39.865173 123.473145,41.421432 123.473145,43.196346 
	C126.280548,43.364658 128.837219,43.517937 131.856537,43.698952 
	C131.856537,50.749546 131.856537,57.310253 131.856537,64.085396 
	C134.111328,63.954376 135.846100,63.853580 138.047714,63.725655 
	C138.047714,56.752205 138.047714,50.199127 138.047714,43.599571 
	C140.960068,43.442642 143.378967,43.312305 146.051987,43.168274 
	C145.948395,41.187893 145.866119,39.614834 145.771729,37.810101 
	C142.431580,37.810101 139.456055,37.810101 135.494934,37.809357 
z"/>
<path fill="#0A0A0A" opacity="1.000000" stroke="none" 
	d="
M253.867874,53.459938 
	C250.909805,61.817806 245.813599,65.209602 238.009201,64.380386 
	C230.195786,63.550198 225.406662,58.093826 225.648163,50.297127 
	C225.878723,42.853294 231.337616,37.573620 239.194763,37.195263 
	C246.787262,36.829651 253.072678,41.872150 253.914169,49.076488 
	C254.066986,50.384823 253.931747,51.726803 253.867874,53.459938 
M243.271698,45.215683 
	C237.141174,43.317131 232.178101,46.412895 233.473160,51.713257 
	C233.986267,53.813263 236.353104,56.443481 238.337845,56.923832 
	C240.316315,57.402664 243.628082,56.125305 245.007782,54.484718 
	C247.334930,51.717545 246.758987,48.317524 243.271698,45.215683 
z"/>
<path fill="#090909" opacity="1.000000" stroke="none" 
	d="
M273.073792,63.553249 
	C268.025696,63.688774 263.377838,63.688774 258.357819,63.688774 
	C258.357819,55.425381 258.357819,46.902462 258.357819,37.883015 
	C262.051971,37.883015 265.818573,37.790951 269.579102,37.902653 
	C276.855408,38.118786 281.936584,42.074593 282.973572,48.182114 
	C284.228088,55.570969 280.988586,60.766537 273.073792,63.553249 
M275.084442,48.860497 
	C273.521759,44.338039 269.850861,44.647190 265.990051,44.756557 
	C265.990051,48.982746 265.990051,52.989559 265.990051,56.981407 
	C273.428406,57.152645 274.967957,55.886303 275.084442,48.860497 
z"/>
<path fill="#080808" opacity="1.000000" stroke="none" 
	d="
M332.062408,45.391560 
	C331.204163,48.541996 330.248138,51.258915 329.450470,54.021561 
	C329.147369,55.071381 328.818695,56.379940 329.182251,57.302372 
	C330.014801,59.415009 331.266418,61.362492 332.474915,63.613735 
	C327.339783,64.572784 323.159119,64.830925 321.541412,58.904099 
	C321.257507,57.864109 319.764893,57.154045 317.967346,55.494972 
	C317.750214,59.076218 317.614471,61.314758 317.465424,63.773003 
	C314.977081,63.773003 312.725037,63.773003 310.228912,63.773003 
	C310.228912,55.325691 310.228912,46.897060 310.226807,38.467537 
	C324.809631,36.819672 330.258545,37.709457 332.062408,45.391560 
M317.329010,45.674297 
	C317.329010,47.236382 317.329010,48.798466 317.329010,50.455589 
	C319.265656,50.455589 320.638092,50.852978 321.506561,50.360909 
	C322.756683,49.652615 323.640289,48.297462 324.680298,47.218380 
	C323.463715,46.128788 322.399048,44.679535 320.976074,44.078632 
	C320.058990,43.691349 318.616058,44.549160 317.329010,45.674297 
z"/>
<path fill="#0B0B0B" opacity="1.000000" stroke="none" 
	d="
M204.193756,47.335129 
	C202.621597,51.149338 202.928741,54.450821 206.220230,56.478096 
	C209.207291,58.317871 211.906769,57.281418 214.760223,55.004059 
	C216.640381,53.503468 219.803833,53.610748 222.664551,52.933727 
	C221.421509,60.773727 215.895142,64.980614 208.446411,64.502144 
	C200.920914,64.018730 196.045486,59.207508 195.650925,51.875122 
	C195.223831,43.938107 199.801834,38.288769 207.471588,37.288200 
	C214.731216,36.341137 220.710938,40.513634 222.917252,49.484280 
	C219.042847,47.866928 216.029938,46.821205 213.218643,45.381767 
	C209.737320,43.599262 206.864914,43.979656 204.193756,47.335129 
z"/>
<path fill="#0B0B0B" opacity="1.000000" stroke="none" 
	d="
M303.601501,64.012314 
	C298.007355,64.017120 292.874237,64.017120 287.451691,64.017120 
	C287.451691,55.335613 287.451691,46.943211 287.451691,38.195759 
	C293.159271,38.195759 298.874451,38.195759 304.985199,38.195759 
	C305.059540,39.834820 305.138550,41.576500 305.239777,43.808857 
	C301.738922,43.808857 298.495026,43.808857 295.263733,43.808857 
	C295.256683,47.258797 295.256683,47.258797 304.041412,48.153545 
	C304.081268,48.883595 304.166962,49.669823 304.156250,50.454731 
	C304.142944,51.425846 304.049591,52.395866 303.969910,53.711769 
	C301.052887,53.711769 298.283813,53.711769 295.396729,53.711769 
	C294.178680,57.048782 295.236847,58.128529 298.365723,57.899899 
	C300.647583,57.733162 302.951416,57.867287 306.600769,57.867287 
	C305.544495,60.422447 304.803467,62.214973 303.601501,64.012314 
z"/>
<path fill="#F0F0F0" opacity="1.000000" stroke="none" 
	d="
M62.183689,39.530846 
	C66.126778,43.319195 65.395256,46.816940 63.448959,49.087387 
	C64.098900,53.246490 65.928566,57.118801 64.714645,59.287445 
	C63.375195,61.680370 59.386852,63.198788 56.291206,63.842571 
	C52.631893,64.603569 48.693218,64.021255 44.540623,64.021255 
	C44.540623,55.406712 44.540623,47.008259 44.540623,37.259663 
	C50.331196,37.938908 56.094902,38.614998 62.183689,39.530846 
M50.262630,56.494076 
	C50.427876,61.334827 54.087093,58.694679 56.118618,58.924976 
	C57.048557,59.030392 58.205109,57.136791 59.258884,56.149776 
	C58.215321,55.115921 57.059013,53.133488 56.151154,53.241398 
	C54.125504,53.482155 50.495613,50.799961 50.262630,56.494076 
M58.155998,43.935722 
	C55.670551,43.388981 53.185104,42.842239 50.526066,42.257313 
	C50.526066,44.923630 50.526066,46.473511 50.526066,48.410923 
	C53.677139,47.500645 58.141502,50.724689 58.155998,43.935722 
z"/>
<path fill="#EEEEEE" opacity="1.000000" stroke="none" 
	d="
M99.157372,49.772617 
	C96.632309,46.410679 96.541138,43.168480 99.062607,40.365330 
	C102.154083,36.928497 106.228767,36.594692 110.551926,37.694172 
	C114.539894,38.708405 116.952156,40.988083 117.291893,46.876740 
	C114.618980,45.602722 112.712517,44.492680 110.667458,43.780830 
	C108.925125,43.174347 107.027275,42.826412 105.189735,42.789791 
	C104.594032,42.777920 103.971481,44.112537 103.361214,44.831253 
	C104.687828,45.892365 105.884697,47.213562 107.370819,47.954945 
	C109.727386,49.130577 112.492401,49.573170 114.698166,50.946548 
	C118.596909,53.374031 119.110764,58.555332 115.869400,61.706905 
	C112.405014,65.075333 108.071495,65.128860 103.702721,64.004669 
	C99.785011,62.996552 97.503319,60.453667 97.093246,55.994301 
	C100.022667,55.470242 102.413849,54.815128 104.398918,58.115414 
	C105.021416,59.150356 107.980843,58.972305 109.863693,58.940548 
	C110.437347,58.930878 111.558731,56.987339 111.462418,56.890446 
	C110.261307,55.681992 109.009277,54.407681 107.520271,53.627556 
	C104.909500,52.259716 102.125404,51.222725 99.157372,49.772617 
z"/>
<path fill="#F8F8F8" opacity="1.000000" stroke="none" 
	d="
M86.884605,48.116096 
	C88.229324,49.470432 89.095711,50.822769 90.524956,53.053665 
	C85.992592,53.053665 82.889610,53.053665 79.301872,53.053665 
	C79.211861,55.102200 79.137314,56.798725 79.047493,58.843086 
	C83.026978,58.843086 86.643456,58.843086 90.591461,58.843086 
	C90.730408,60.546547 90.845192,61.953720 90.986969,63.691910 
	C85.073021,63.691910 79.330833,63.691910 73.310791,63.691910 
	C73.310791,55.301811 73.310791,46.891331 73.310791,38.147499 
	C78.841660,38.147499 84.387390,38.147499 90.150032,38.147499 
	C90.150032,39.635796 90.150032,41.039955 90.150032,42.805901 
	C86.512917,42.805901 83.076195,42.805901 79.350784,42.805901 
	C79.350784,44.688438 79.350784,46.213772 79.350784,48.114090 
	C81.809059,48.114090 84.107666,48.114090 86.884605,48.116096 
z"/>
<path fill="#F5F5F5" opacity="1.000000" stroke="none" 
	d="
M135.987732,37.809731 
	C139.456055,37.810101 142.431580,37.810101 145.771729,37.810101 
	C145.866119,39.614834 145.948395,41.187893 146.051987,43.168274 
	C143.378967,43.312305 140.960068,43.442642 138.047714,43.599571 
	C138.047714,50.199127 138.047714,56.752205 138.047714,63.725655 
	C135.846100,63.853580 134.111328,63.954376 131.856537,64.085396 
	C131.856537,57.310253 131.856537,50.749546 131.856537,43.698952 
	C128.837219,43.517937 126.280548,43.364658 123.473145,43.196346 
	C123.473145,41.421432 123.473145,39.865173 123.473145,37.809357 
	C127.584900,37.809357 131.539917,37.809357 135.987732,37.809731 
z"/>
<path fill="#F3F3F3" opacity="1.000000" stroke="none" 
	d="
M243.587524,45.448856 
	C246.758987,48.317524 247.334930,51.717545 245.007782,54.484718 
	C243.628082,56.125305 240.316315,57.402664 238.337845,56.923832 
	C236.353104,56.443481 233.986267,53.813263 233.473160,51.713257 
	C232.178101,46.412895 237.141174,43.317131 243.587524,45.448856 
z"/>
<path fill="#F8F8F8" opacity="1.000000" stroke="none" 
	d="
M275.152557,49.278503 
	C274.967957,55.886303 273.428406,57.152645 265.990051,56.981407 
	C265.990051,52.989559 265.990051,48.982746 265.990051,44.756557 
	C269.850861,44.647190 273.521759,44.338039 275.152557,49.278503 
z"/>
<path fill="#E0E0E0" opacity="1.000000" stroke="none" 
	d="
M317.368896,45.261620 
	C318.616058,44.549160 320.058990,43.691349 320.976074,44.078632 
	C322.399048,44.679535 323.463715,46.128788 324.680298,47.218384 
	C323.640289,48.297462 322.756683,49.652615 321.506561,50.360909 
	C320.638092,50.852978 319.265656,50.455589 317.329010,50.455589 
	C317.329010,48.798466 317.329010,47.236382 317.368896,45.261620 
z"/>
<path fill="#0F0F0F" opacity="1.000000" stroke="none" 
	d="
M50.262520,56.049080 
	C50.495613,50.799961 54.125504,53.482155 56.151154,53.241398 
	C57.059013,53.133488 58.215321,55.115921 59.258888,56.149776 
	C58.205109,57.136791 57.048557,59.030392 56.118618,58.924976 
	C54.087093,58.694679 50.427876,61.334827 50.262520,56.049080 
z"/>
<path fill="#151515" opacity="1.000000" stroke="none" 
	d="
M58.364227,44.298492 
	C58.141502,50.724689 53.677139,47.500645 50.526066,48.410923 
	C50.526066,46.473511 50.526066,44.923630 50.526066,42.257313 
	C53.185104,42.842239 55.670551,43.388981 58.364227,44.298492 
z"/>
</svg>